<?xml version="1.0" encoding="iso-8859-1"?>
<!-- Generator: Adobe Illustrator 18.0.0, SVG Export Plug-In . SVG Version: 6.00 Build 0)  -->
<!DOCTYPE svg PUBLIC "-//W3C//DTD SVG 1.1//EN" "http://www.w3.org/Graphics/SVG/1.1/DTD/svg11.dtd">
<svg version="1.1" id="Capa_1" xmlns="http://www.w3.org/2000/svg" xmlns:xlink="http://www.w3.org/1999/xlink" x="0px" y="0px"
	 viewBox="0 0 346.284 346.284" style="enable-background:new 0 0 346.284 346.284;" xml:space="preserve">
<g>
	<path d="M66.376,68.169l89.037,88.371c0.859,0.854,2.006,1.306,3.171,1.306c0.582,0,1.17-0.113,1.728-0.346
		c1.678-0.699,2.771-2.337,2.771-4.154V4.5c0-2.485-2.015-4.5-4.5-4.5C117.32,0,78.654,16.036,49.707,45.155
		c-1.748,1.759-1.744,4.601,0.01,6.354L66.376,68.169z M75.097,64.145c22.398-20.425,49.551-31.563,78.987-32.38v33.577
		c-14.179,1.479-25.27,13.499-25.27,28.063c0,14.563,11.09,26.584,25.27,28.063v21.071L75.097,64.145z M154.083,112.372
		c-9.199-1.426-16.27-9.375-16.27-18.967c0-9.592,7.071-17.541,16.27-18.967V112.372z M154.083,9.068v13.695
		c-31.455,0.853-61.489,13.185-85.364,35.022l-9.419-9.419C85.081,23.97,118.43,10.142,154.083,9.068z"/>
	<path d="M282.767,81.736c-0.011-0.011-0.019-0.025-0.03-0.036c-0.011-0.011-0.025-0.019-0.036-0.03
		c-29.272-29.254-68.178-45.365-109.558-45.365c-2.485,0-4.5,2.015-4.5,4.5V180.43l-98.73-98.731
		c-0.85-0.85-2.041-1.324-3.209-1.318c-1.203,0.007-2.353,0.496-3.193,1.357l-0.329,0.335
		c-29.037,29.225-45.028,68.013-45.028,109.221c0,41.394,16.115,80.305,45.374,109.568c0.008,0.008,0.014,0.019,0.022,0.027
		c0.009,0.008,0.019,0.014,0.028,0.022c29.264,29.259,68.174,45.373,109.566,45.373c41.331,0,80.193-16.071,109.452-45.258
		c0.048-0.044,0.096-0.09,0.143-0.137c0.047-0.047,0.093-0.095,0.137-0.143c29.188-29.25,45.259-68.112,45.259-109.452
		C328.132,149.904,312.021,110.998,282.767,81.736z M306.228,186.794c-1.068-32.385-13.65-62.767-35.793-86.429l9.063-9.063
		c24.563,26.078,38.48,59.676,39.558,95.493H306.228z M66.786,291.287c-24.563-26.078-38.481-59.676-39.558-95.493h12.819
		c1.069,32.388,13.654,62.771,35.801,86.431L66.786,291.287z M162.279,186.794H49.052c1.061-29.985,12.711-58.109,33.164-80.063
		L162.279,186.794z M177.642,121.482c8.107,2.255,14.131,9.745,14.131,18.496c0,8.751-6.023,16.242-14.131,18.496V121.482z
		 M177.642,167.718c13.096-2.42,23.131-14.045,23.131-27.74c0-13.695-10.035-25.319-23.131-27.74V67.205
		c29.985,1.061,58.111,12.711,80.063,33.163l-80.063,80.063V167.718z M49.052,195.794h113.227l-23.9,23.9
		c-5.547-4.394-12.548-7.027-20.157-7.027c-17.938,0-32.53,14.593-32.53,32.53c0,7.609,2.633,14.611,7.027,20.158l-10.502,10.502
		C61.763,253.903,50.113,225.779,49.052,195.794z M141.75,245.197c0,12.975-10.556,23.53-23.529,23.53
		c-4.601,0-8.894-1.332-12.524-3.624l32.429-32.429C140.418,236.304,141.75,240.597,141.75,245.197z M94.691,245.197
		c0-12.974,10.556-23.53,23.53-23.53c5.125,0,9.87,1.652,13.739,4.446l-32.823,32.823C96.343,255.067,94.691,250.323,94.691,245.197
		z M99.222,271.578c5.35,3.864,11.911,6.149,18.999,6.149c17.937,0,32.529-14.593,32.529-32.53c0-7.088-2.286-13.649-6.149-18.999
		l24.041-24.041v113.217c-29.982-1.061-58.107-12.708-80.062-33.155L99.222,271.578z M177.642,202.157l80.062,80.062
		c-21.955,20.448-50.08,32.095-80.062,33.156V202.157z M184.006,195.794h39.189c2.383,15.605,15.895,27.599,32.157,27.599
		c16.26,0,29.773-11.993,32.156-27.599h9.715c-1.061,29.981-12.708,58.106-33.155,80.061L184.006,195.794z M278.357,195.794
		c-2.273,10.614-11.723,18.599-23.005,18.599c-11.283,0-20.733-7.984-23.006-18.599H278.357z M232.181,186.794
		c1.934-11.041,11.585-19.461,23.171-19.461c11.586,0,21.236,8.42,23.17,19.461H232.181z M287.618,186.794
		c-2.01-16.022-15.708-28.461-32.266-28.461c-16.558,0-30.257,12.439-32.267,28.461h-39.079l80.062-80.062
		c20.447,21.957,32.094,50.081,33.155,80.062H287.618z M273.134,84.938L264.073,94c-23.658-22.147-54.041-34.733-86.431-35.801
		V45.372C213.451,46.449,247.049,60.375,273.134,84.938z M66.78,91.295l9.068,9.068c-22.147,23.659-34.733,54.042-35.801,86.43
		H27.228C28.306,150.993,42.222,117.372,66.78,91.295z M73.15,297.651l9.063-9.063c23.661,22.142,54.044,34.724,86.43,35.792v12.836
		C132.827,336.139,99.229,322.213,73.15,297.651z M177.642,337.217V324.38c32.386-1.068,62.768-13.65,86.43-35.793l9.068,9.068
		C247.055,322.218,213.451,336.139,177.642,337.217z M279.505,291.292l-9.069-9.069c22.142-23.662,34.724-54.044,35.792-86.429
		h12.828C317.979,231.61,304.068,265.214,279.505,291.292z"/>
	<path d="M91.053,179.407c10.804,0,19.594-8.789,19.594-19.593c0-10.804-8.79-19.593-19.594-19.593s-19.593,8.79-19.593,19.593
		C71.46,170.618,80.249,179.407,91.053,179.407z M91.053,149.221c5.842,0,10.594,4.752,10.594,10.593
		c0,5.841-4.752,10.593-10.594,10.593c-5.841,0-10.593-4.752-10.593-10.593C80.46,153.973,85.212,149.221,91.053,149.221z"/>
	<path d="M206.623,247.166c-10.804,0-19.593,8.789-19.593,19.593c0,10.804,8.789,19.593,19.593,19.593
		c10.804,0,19.593-8.79,19.593-19.593C226.215,255.955,217.426,247.166,206.623,247.166z M206.623,277.352
		c-5.841,0-10.593-4.752-10.593-10.593c0-5.841,4.752-10.593,10.593-10.593c5.841,0,10.593,4.752,10.593,10.593
		C217.215,272.6,212.463,277.352,206.623,277.352z"/>
	<path d="M223.009,83.299c-10.804,0-19.593,8.789-19.593,19.593s8.789,19.593,19.593,19.593s19.593-8.789,19.593-19.593
		S233.813,83.299,223.009,83.299z M223.009,113.485c-5.841,0-10.593-4.752-10.593-10.593c0-5.841,4.752-10.593,10.593-10.593
		c5.841,0,10.593,4.752,10.593,10.593C233.602,108.733,228.85,113.485,223.009,113.485z"/>
</g>
<g>
</g>
<g>
</g>
<g>
</g>
<g>
</g>
<g>
</g>
<g>
</g>
<g>
</g>
<g>
</g>
<g>
</g>
<g>
</g>
<g>
</g>
<g>
</g>
<g>
</g>
<g>
</g>
<g>
</g>
</svg>
